<?xml version="1.0" standalone="no"?>
<!DOCTYPE svg PUBLIC "-//W3C//DTD SVG 20010904//EN"
 "http://www.w3.org/TR/2001/REC-SVG-20010904/DTD/svg10.dtd">
<svg version="1.0" xmlns="http://www.w3.org/2000/svg"
 width="416.000000pt" height="416.000000pt" viewBox="0 0 416.000000 416.000000"
 preserveAspectRatio="xMidYMid meet">
<metadata>
Created by potrace 1.11, written by Peter Selinger 2001-2013
</metadata>
<g transform="translate(0.000000,416.000000) scale(0.100000,-0.100000)"
fill="#000000" stroke="none">
<path d="M1980 4091 c5 -11 10 -22 10 -25 0 -8 -53 -1 -69 9 -10 5 -12 4 -7
-3 4 -7 2 -12 -5 -12 -7 0 -1 -13 14 -28 40 -41 33 -87 -7 -47 -13 14 -15 12
-13 -11 1 -15 -4 -29 -10 -31 -7 -3 -13 3 -13 12 0 9 -4 14 -10 10 -5 -3 -7
-12 -3 -20 6 -17 -27 -20 -62 -6 -12 5 -25 3 -34 -6 -7 -8 -20 -12 -27 -9 -9
3 -14 -2 -14 -13 0 -16 -8 -19 -57 -18 -51 1 -58 -1 -61 -19 -2 -14 3 -20 19
-21 30 -3 48 -21 30 -32 -9 -6 -10 -11 -2 -15 6 -4 11 -14 11 -23 0 -12 -8
-14 -35 -11 -19 2 -35 0 -35 -4 0 -5 -11 -18 -25 -30 -14 -12 -25 -27 -25 -34
0 -14 -28 -27 -41 -19 -5 4 -6 -1 -3 -10 5 -11 0 -18 -14 -22 -14 -3 -21 -12
-19 -26 1 -14 -6 -25 -20 -32 -13 -5 -23 -16 -23 -23 0 -9 -7 -11 -22 -6 -20
6 -21 5 -9 -10 12 -14 11 -19 -4 -36 -9 -10 -23 -16 -31 -13 -8 3 -14 0 -14
-7 0 -6 4 -9 9 -5 17 10 23 -15 7 -30 -8 -8 -17 -28 -21 -45 -4 -16 -10 -30
-14 -30 -5 0 -6 -11 -3 -25 3 -17 0 -25 -9 -25 -11 0 -11 -2 0 -9 12 -8 12
-12 2 -25 -7 -8 -10 -20 -7 -25 4 -5 2 -12 -3 -16 -6 -3 -8 -12 -4 -20 3 -8 0
-15 -7 -15 -10 0 -10 -3 -1 -14 9 -10 9 -16 1 -21 -8 -5 -8 -11 1 -21 6 -8 7
-14 2 -14 -5 0 -9 -19 -10 -42 -1 -24 -5 -63 -8 -88 -3 -25 -5 -54 -4 -65 1
-20 1 -162 -1 -225 0 -35 2 -73 15 -200 13 -138 13 -149 -3 -155 -9 -3 -18 -2
-21 3 -3 4 -15 7 -26 7 -49 -3 -58 -5 -52 -12 4 -3 2 -12 -3 -18 -14 -17 -14
-219 0 -245 7 -12 14 -55 17 -96 l6 -74 -109 -1 c-567 -3 -581 -3 -602 -22
-46 -42 -51 -69 -47 -276 1 -108 4 -198 5 -201 1 -3 2 -13 1 -22 -1 -10 3 -43
9 -75 11 -58 15 -115 24 -371 5 -141 2 -162 -20 -162 -8 0 -19 -11 -24 -25 -5
-14 -14 -25 -19 -25 -17 0 -113 -136 -142 -200 -6 -14 -21 -45 -34 -70 -12
-25 -26 -61 -30 -80 -4 -19 -10 -39 -14 -45 -13 -21 -32 -83 -46 -152 -9 -39
-24 -97 -35 -129 -11 -31 -20 -65 -20 -76 0 -17 63 -18 1975 -18 l1975 0 0 28
c-1 38 -24 133 -54 222 -14 41 -26 82 -26 92 0 9 -4 19 -9 22 -4 3 -16 27 -26
53 -27 74 -105 231 -121 244 -8 6 -14 16 -14 22 0 11 -5 17 -59 75 -45 48 -53
69 -47 110 5 33 11 118 21 307 2 33 6 78 9 100 8 61 16 176 22 315 3 69 6 130
6 135 2 43 -17 146 -33 171 -28 47 -65 53 -305 51 l-214 -2 0 36 c0 19 11 68
25 107 16 46 25 96 26 139 2 76 -1 92 -18 110 -6 7 -13 18 -15 24 -4 13 -76
21 -83 8 -11 -17 -35 -9 -35 11 0 11 4 20 8 20 8 0 15 37 15 82 0 15 3 26 6
24 4 -3 7 12 8 32 1 41 10 128 19 182 5 31 7 166 3 258 0 17 -5 32 -9 32 -4 0
-7 11 -6 25 0 14 3 25 6 25 3 0 5 19 4 43 -1 23 4 45 10 50 7 5 5 12 -7 21
-10 8 -17 20 -16 28 4 23 -13 88 -23 88 -5 0 -7 8 -3 19 3 12 0 21 -10 25 -19
7 -20 32 0 40 13 5 13 10 -3 40 -9 19 -27 37 -38 40 -14 4 -22 14 -22 28 -2
40 -7 52 -35 82 -31 34 -34 46 -9 47 12 0 10 3 -8 11 -14 6 -28 12 -32 13 -5
2 -11 4 -15 5 -5 1 -12 2 -17 1 -5 -1 -6 4 -3 11 5 14 -11 32 -30 34 -25 2
-28 4 -40 24 -9 13 -10 27 -4 42 8 22 7 23 -30 21 -22 -1 -44 -5 -49 -8 -6 -3
-10 -1 -10 4 0 6 -11 11 -24 11 -13 0 -26 7 -30 15 -3 8 -13 15 -22 15 -10 0
-14 5 -11 14 4 11 -1 13 -20 10 -15 -3 -30 0 -34 8 -12 19 -11 28 4 28 6 0 18
13 25 28 6 16 21 38 32 50 11 11 16 23 12 25 -11 5 -95 0 -121 -9 -20 -6 -23
-4 -18 8 11 29 -5 27 -30 -3 -14 -16 -31 -29 -38 -29 -7 0 -15 -7 -19 -15 -3
-8 -15 -15 -26 -15 -21 0 -26 10 -11 25 5 6 12 25 14 43 4 25 1 35 -11 39 -9
4 -18 1 -20 -5 -5 -15 -38 -16 -47 -2 -3 6 -1 10 6 10 7 0 10 2 7 5 -3 3 -18
-1 -33 -9 -16 -8 -33 -12 -38 -9 -6 3 -25 6 -44 5 -19 -1 -31 3 -28 8 3 5 0
12 -6 16 -8 4 -9 3 -5 -4 11 -18 -33 -15 -50 3 -9 8 -26 16 -40 16 -13 1 -28
3 -34 4 -5 1 -21 3 -34 4 -12 0 -35 12 -50 26 -33 31 -62 34 -46 6z"/>
<path d="M2641 4007 c-13 -21 -12 -21 5 -5 10 10 16 20 13 22 -3 3 -11 -5 -18
-17z"/>
</g>
</svg>
